# Tiled2Unity generated file. Do not modify by hand.
# Wavefront file for 'Level1_mesh_0008.obj'

# Vertices (Count = 48)
v -768 -480 -0.6
v -784 -480 -0.6
v -784 -464 -0.6
v -768 -464 -0.6
v -752 -480 -0.6
v -768 -480 -0.6
v -768 -464 -0.6
v -752 -464 -0.6
v -736 -480 -0.6
v -752 -480 -0.6
v -752 -464 -0.6
v -736 -464 -0.6
v -720 -480 -0.6
v -736 -480 -0.6
v -736 -464 -0.6
v -720 -464 -0.6
v -704 -480 -0.6
v -720 -480 -0.6
v -720 -464 -0.6
v -704 -464 -0.6
v -688 -480 -0.6
v -704 -480 -0.6
v -704 -464 -0.6
v -688 -464 -0.6
v -768 -464 -0.58
v -784 -464 -0.58
v -784 -448 -0.58
v -768 -448 -0.58
v -752 -464 -0.58
v -768 -464 -0.58
v -768 -448 -0.58
v -752 -448 -0.58
v -736 -464 -0.58
v -752 -464 -0.58
v -752 -448 -0.58
v -736 -448 -0.58
v -720 -464 -0.58
v -736 -464 -0.58
v -736 -448 -0.58
v -720 -448 -0.58
v -704 -464 -0.58
v -720 -464 -0.58
v -720 -448 -0.58
v -704 -448 -0.58
v -688 -464 -0.58
v -704 -464 -0.58
v -704 -448 -0.58
v -688 -448 -0.58

# Texture cooridinates (Count = 21)
vt 0.1666667 0.1
vt 0.2 0.1
vt 0.2 0.1333333
vt 0.1666667 0.1333333
vt 0.1333333 0.1
vt 0.1333333 0.1333333
vt 0.1 0.1
vt 0.1 0.1333333
vt 0.06666667 0.1
vt 0.06666667 0.1333333
vt 0.03333334 0.1
vt 0.03333334 0.1333333
vt 0 0.1
vt 0 0.1333333
vt 0.2 0.1666667
vt 0.1666667 0.1666667
vt 0.1333333 0.1666667
vt 0.1 0.1666667
vt 0.06666667 0.1666667
vt 0.03333334 0.1666667
vt 0 0.1666667

# Normal
vn 0 0 -1

# Mesh description
g Level1_mesh_0008

# Faces
f 1/1/1 2/2/1 3/3/1 4/4/1
f 5/5/1 6/1/1 7/4/1 8/6/1
f 9/7/1 10/5/1 11/6/1 12/8/1
f 13/9/1 14/7/1 15/8/1 16/10/1
f 17/11/1 18/9/1 19/10/1 20/12/1
f 21/13/1 22/11/1 23/12/1 24/14/1
f 25/4/1 26/3/1 27/15/1 28/16/1
f 29/6/1 30/4/1 31/16/1 32/17/1
f 33/8/1 34/6/1 35/17/1 36/18/1
f 37/10/1 38/8/1 39/18/1 40/19/1
f 41/12/1 42/10/1 43/19/1 44/20/1
f 45/14/1 46/12/1 47/20/1 48/21/1

