# Tiled2Unity generated file. Do not modify by hand.
# Wavefront file for 'Level1_mesh_0002.obj'

# Vertices (Count = 12)
v -3168 -800 0.075
v -4870 -800 0.075
v -4870 76 0.075
v -3168 76 0.075
v -1696 -800 0.075
v -3398 -800 0.075
v -3398 76 0.075
v -1696 76 0.075
v 0 -800 0.075
v -1702 -800 0.075
v -1702 76 0.075
v 0 76 0.075

# Texture cooridinates (Count = 4)
vt 0 0
vt 1 0
vt 1 1
vt 0 1

# Normal
vn 0 0 -1

# Mesh description
g Level1_mesh_0002

# Faces
f 1/1/1 2/2/1 3/3/1 4/4/1
f 5/1/1 6/2/1 7/3/1 8/4/1
f 9/1/1 10/2/1 11/3/1 12/4/1

