# Tiled2Unity generated file. Do not modify by hand.
# Wavefront file for 'Level1_mesh_0004.obj'

# Vertices (Count = 60)
v -1840 -672 -0.84
v -1856 -672 -0.84
v -1856 -656 -0.84
v -1840 -656 -0.84
v -1824 -672 -0.84
v -1840 -672 -0.84
v -1840 -656 -0.84
v -1824 -656 -0.84
v -1856 -656 -0.82
v -1872 -656 -0.82
v -1872 -640 -0.82
v -1856 -640 -0.82
v -1840 -656 -0.82
v -1856 -656 -0.82
v -1856 -640 -0.82
v -1840 -640 -0.82
v -1856 -608 -0.76
v -1872 -608 -0.76
v -1872 -592 -0.76
v -1856 -592 -0.76
v -1840 -608 -0.76
v -1856 -608 -0.76
v -1856 -592 -0.76
v -1840 -592 -0.76
v -1824 -608 -0.76
v -1840 -608 -0.76
v -1840 -592 -0.76
v -1824 -592 -0.76
v -1808 -608 -0.76
v -1824 -608 -0.76
v -1824 -592 -0.76
v -1808 -592 -0.76
v -1104 -480 -0.6
v -1120 -480 -0.6
v -1120 -464 -0.6
v -1104 -464 -0.6
v -1088 -480 -0.6
v -1104 -480 -0.6
v -1104 -464 -0.6
v -1088 -464 -0.6
v -1104 -464 -0.58
v -1120 -464 -0.58
v -1120 -448 -0.58
v -1104 -448 -0.58
v -1088 -464 -0.58
v -1104 -464 -0.58
v -1104 -448 -0.58
v -1088 -448 -0.58
v -1104 -448 -0.56
v -1120 -448 -0.56
v -1120 -432 -0.56
v -1104 -432 -0.56
v -1088 -448 -0.56
v -1104 -448 -0.56
v -1104 -432 -0.56
v -1088 -432 -0.56
v -1104 -432 -0.54
v -1120 -432 -0.54
v -1120 -416 -0.54
v -1104 -416 -0.54

# Texture cooridinates (Count = 12)
vt 0.1 0.5
vt 0.1333333 0.5
vt 0.1333333 0.5454545
vt 0.1 0.5454545
vt 0.1333333 0.9545454
vt 0.1666667 0.9545454
vt 0.1666667 1
vt 0.1333333 1
vt 0.1666667 0.5909091
vt 0.2 0.5909091
vt 0.2 0.6363636
vt 0.1666667 0.6363636

# Normal
vn 0 0 -1

# Mesh description
g Level1_mesh_0004

# Faces
f 1/1/1 2/2/1 3/3/1 4/4/1
f 5/1/1 6/2/1 7/3/1 8/4/1
f 9/1/1 10/2/1 11/3/1 12/4/1
f 13/1/1 14/2/1 15/3/1 16/4/1
f 17/5/1 18/6/1 19/7/1 20/8/1
f 21/5/1 22/6/1 23/7/1 24/8/1
f 25/5/1 26/6/1 27/7/1 28/8/1
f 29/5/1 30/6/1 31/7/1 32/8/1
f 33/9/1 34/10/1 35/11/1 36/12/1
f 37/9/1 38/10/1 39/11/1 40/12/1
f 41/9/1 42/10/1 43/11/1 44/12/1
f 45/9/1 46/10/1 47/11/1 48/12/1
f 49/9/1 50/10/1 51/11/1 52/12/1
f 53/9/1 54/10/1 55/11/1 56/12/1
f 57/9/1 58/10/1 59/11/1 60/12/1

