# Tiled2Unity generated file. Do not modify by hand.
# Wavefront file for 'Level1_mesh_0006.obj'

# Vertices (Count = 648)
v -2496 -800 -1
v -2512 -800 -1
v -2512 -784 -1
v -2496 -784 -1
v -2480 -800 -1
v -2496 -800 -1
v -2496 -784 -1
v -2480 -784 -1
v -2464 -800 -1
v -2480 -800 -1
v -2480 -784 -1
v -2464 -784 -1
v -2448 -800 -1
v -2464 -800 -1
v -2464 -784 -1
v -2448 -784 -1
v -2432 -800 -1
v -2448 -800 -1
v -2448 -784 -1
v -2432 -784 -1
v -2416 -800 -1
v -2432 -800 -1
v -2432 -784 -1
v -2416 -784 -1
v -2400 -800 -1
v -2416 -800 -1
v -2416 -784 -1
v -2400 -784 -1
v -2384 -800 -1
v -2400 -800 -1
v -2400 -784 -1
v -2384 -784 -1
v -2432 -784 -0.98
v -2448 -784 -0.98
v -2448 -768 -0.98
v -2432 -768 -0.98
v -2416 -784 -0.98
v -2432 -784 -0.98
v -2432 -768 -0.98
v -2416 -768 -0.98
v -2400 -784 -0.98
v -2416 -784 -0.98
v -2416 -768 -0.98
v -2400 -768 -0.98
v -2384 -784 -0.98
v -2400 -784 -0.98
v -2400 -768 -0.98
v -2384 -768 -0.98
v -2432 -768 -0.96
v -2448 -768 -0.96
v -2448 -752 -0.96
v -2432 -752 -0.96
v -2416 -768 -0.96
v -2432 -768 -0.96
v -2432 -752 -0.96
v -2416 -752 -0.96
v -2400 -768 -0.96
v -2416 -768 -0.96
v -2416 -752 -0.96
v -2400 -752 -0.96
v -2384 -768 -0.96
v -2400 -768 -0.96
v -2400 -752 -0.96
v -2384 -752 -0.96
v -2368 -768 -0.96
v -2384 -768 -0.96
v -2384 -752 -0.96
v -2368 -752 -0.96
v -2352 -768 -0.96
v -2368 -768 -0.96
v -2368 -752 -0.96
v -2352 -752 -0.96
v -2336 -768 -0.96
v -2352 -768 -0.96
v -2352 -752 -0.96
v -2336 -752 -0.96
v -2320 -768 -0.96
v -2336 -768 -0.96
v -2336 -752 -0.96
v -2320 -752 -0.96
v -2368 -752 -0.94
v -2384 -752 -0.94
v -2384 -736 -0.94
v -2368 -736 -0.94
v -2352 -752 -0.94
v -2368 -752 -0.94
v -2368 -736 -0.94
v -2352 -736 -0.94
v -2336 -752 -0.94
v -2352 -752 -0.94
v -2352 -736 -0.94
v -2336 -736 -0.94
v -2320 -752 -0.94
v -2336 -752 -0.94
v -2336 -736 -0.94
v -2320 -736 -0.94
v -2368 -736 -0.92
v -2384 -736 -0.92
v -2384 -720 -0.92
v -2368 -720 -0.92
v -2352 -736 -0.92
v -2368 -736 -0.92
v -2368 -720 -0.92
v -2352 -720 -0.92
v -2336 -736 -0.92
v -2352 -736 -0.92
v -2352 -720 -0.92
v -2336 -720 -0.92
v -2320 -736 -0.92
v -2336 -736 -0.92
v -2336 -720 -0.92
v -2320 -720 -0.92
v -2304 -736 -0.92
v -2320 -736 -0.92
v -2320 -720 -0.92
v -2304 -720 -0.92
v -2288 -736 -0.92
v -2304 -736 -0.92
v -2304 -720 -0.92
v -2288 -720 -0.92
v -2272 -736 -0.92
v -2288 -736 -0.92
v -2288 -720 -0.92
v -2272 -720 -0.92
v -2256 -736 -0.92
v -2272 -736 -0.92
v -2272 -720 -0.92
v -2256 -720 -0.92
v -2304 -720 -0.9
v -2320 -720 -0.9
v -2320 -704 -0.9
v -2304 -704 -0.9
v -2288 -720 -0.9
v -2304 -720 -0.9
v -2304 -704 -0.9
v -2288 -704 -0.9
v -2272 -720 -0.9
v -2288 -720 -0.9
v -2288 -704 -0.9
v -2272 -704 -0.9
v -2256 -720 -0.9
v -2272 -720 -0.9
v -2272 -704 -0.9
v -2256 -704 -0.9
v -1776 -720 -0.9
v -1792 -720 -0.9
v -1792 -704 -0.9
v -1776 -704 -0.9
v -1760 -720 -0.9
v -1776 -720 -0.9
v -1776 -704 -0.9
v -1760 -704 -0.9
v -2304 -704 -0.88
v -2320 -704 -0.88
v -2320 -688 -0.88
v -2304 -688 -0.88
v -2288 -704 -0.88
v -2304 -704 -0.88
v -2304 -688 -0.88
v -2288 -688 -0.88
v -2272 -704 -0.88
v -2288 -704 -0.88
v -2288 -688 -0.88
v -2272 -688 -0.88
v -2256 -704 -0.88
v -2272 -704 -0.88
v -2272 -688 -0.88
v -2256 -688 -0.88
v -2240 -704 -0.88
v -2256 -704 -0.88
v -2256 -688 -0.88
v -2240 -688 -0.88
v -2224 -704 -0.88
v -2240 -704 -0.88
v -2240 -688 -0.88
v -2224 -688 -0.88
v -2208 -704 -0.88
v -2224 -704 -0.88
v -2224 -688 -0.88
v -2208 -688 -0.88
v -2192 -704 -0.88
v -2208 -704 -0.88
v -2208 -688 -0.88
v -2192 -688 -0.88
v -2240 -688 -0.86
v -2256 -688 -0.86
v -2256 -672 -0.86
v -2240 -672 -0.86
v -2224 -688 -0.86
v -2240 -688 -0.86
v -2240 -672 -0.86
v -2224 -672 -0.86
v -2208 -688 -0.86
v -2224 -688 -0.86
v -2224 -672 -0.86
v -2208 -672 -0.86
v -2192 -688 -0.86
v -2208 -688 -0.86
v -2208 -672 -0.86
v -2192 -672 -0.86
v -2240 -672 -0.84
v -2256 -672 -0.84
v -2256 -656 -0.84
v -2240 -656 -0.84
v -2224 -672 -0.84
v -2240 -672 -0.84
v -2240 -656 -0.84
v -2224 -656 -0.84
v -2208 -672 -0.84
v -2224 -672 -0.84
v -2224 -656 -0.84
v -2208 -656 -0.84
v -2192 -672 -0.84
v -2208 -672 -0.84
v -2208 -656 -0.84
v -2192 -656 -0.84
v -2176 -672 -0.84
v -2192 -672 -0.84
v -2192 -656 -0.84
v -2176 -656 -0.84
v -2160 -672 -0.84
v -2176 -672 -0.84
v -2176 -656 -0.84
v -2160 -656 -0.84
v -2144 -672 -0.84
v -2160 -672 -0.84
v -2160 -656 -0.84
v -2144 -656 -0.84
v -2128 -672 -0.84
v -2144 -672 -0.84
v -2144 -656 -0.84
v -2128 -656 -0.84
v -2176 -656 -0.82
v -2192 -656 -0.82
v -2192 -640 -0.82
v -2176 -640 -0.82
v -2160 -656 -0.82
v -2176 -656 -0.82
v -2176 -640 -0.82
v -2160 -640 -0.82
v -2144 -656 -0.82
v -2160 -656 -0.82
v -2160 -640 -0.82
v -2144 -640 -0.82
v -2128 -656 -0.82
v -2144 -656 -0.82
v -2144 -640 -0.82
v -2128 -640 -0.82
v -1840 -656 -0.82
v -1856 -656 -0.82
v -1856 -640 -0.82
v -1840 -640 -0.82
v -1824 -656 -0.82
v -1840 -656 -0.82
v -1840 -640 -0.82
v -1824 -640 -0.82
v -2176 -640 -0.8
v -2192 -640 -0.8
v -2192 -624 -0.8
v -2176 -624 -0.8
v -2160 -640 -0.8
v -2176 -640 -0.8
v -2176 -624 -0.8
v -2160 -624 -0.8
v -2144 -640 -0.8
v -2160 -640 -0.8
v -2160 -624 -0.8
v -2144 -624 -0.8
v -2128 -640 -0.8
v -2144 -640 -0.8
v -2144 -624 -0.8
v -2128 -624 -0.8
v -1936 -640 -0.8
v -1952 -640 -0.8
v -1952 -624 -0.8
v -1936 -624 -0.8
v -1920 -640 -0.8
v -1936 -640 -0.8
v -1936 -624 -0.8
v -1920 -624 -0.8
v -1904 -640 -0.8
v -1920 -640 -0.8
v -1920 -624 -0.8
v -1904 -624 -0.8
v -1888 -640 -0.8
v -1904 -640 -0.8
v -1904 -624 -0.8
v -1888 -624 -0.8
v -1872 -640 -0.8
v -1888 -640 -0.8
v -1888 -624 -0.8
v -1872 -624 -0.8
v -1856 -640 -0.8
v -1872 -640 -0.8
v -1872 -624 -0.8
v -1856 -624 -0.8
v -1840 -640 -0.8
v -1856 -640 -0.8
v -1856 -624 -0.8
v -1840 -624 -0.8
v -1824 -640 -0.8
v -1840 -640 -0.8
v -1840 -624 -0.8
v -1824 -624 -0.8
v -1808 -640 -0.8
v -1824 -640 -0.8
v -1824 -624 -0.8
v -1808 -624 -0.8
v -1792 -640 -0.8
v -1808 -640 -0.8
v -1808 -624 -0.8
v -1792 -624 -0.8
v -1760 -640 -0.8
v -1776 -640 -0.8
v -1776 -624 -0.8
v -1760 -624 -0.8
v -1744 -640 -0.8
v -1760 -640 -0.8
v -1760 -624 -0.8
v -1744 -624 -0.8
v -1728 -640 -0.8
v -1744 -640 -0.8
v -1744 -624 -0.8
v -1728 -624 -0.8
v -1936 -624 -0.78
v -1952 -624 -0.78
v -1952 -608 -0.78
v -1936 -608 -0.78
v -1920 -624 -0.78
v -1936 -624 -0.78
v -1936 -608 -0.78
v -1920 -608 -0.78
v -1904 -624 -0.78
v -1920 -624 -0.78
v -1920 -608 -0.78
v -1904 -608 -0.78
v -1888 -624 -0.78
v -1904 -624 -0.78
v -1904 -608 -0.78
v -1888 -608 -0.78
v -1872 -624 -0.78
v -1888 -624 -0.78
v -1888 -608 -0.78
v -1872 -608 -0.78
v -1856 -624 -0.78
v -1872 -624 -0.78
v -1872 -608 -0.78
v -1856 -608 -0.78
v -1840 -624 -0.78
v -1856 -624 -0.78
v -1856 -608 -0.78
v -1840 -608 -0.78
v -1824 -624 -0.78
v -1840 -624 -0.78
v -1840 -608 -0.78
v -1824 -608 -0.78
v -1808 -624 -0.78
v -1824 -624 -0.78
v -1824 -608 -0.78
v -1808 -608 -0.78
v -1792 -624 -0.78
v -1808 -624 -0.78
v -1808 -608 -0.78
v -1792 -608 -0.78
v -1776 -624 -0.78
v -1792 -624 -0.78
v -1792 -608 -0.78
v -1776 -608 -0.78
v -1760 -624 -0.78
v -1776 -624 -0.78
v -1776 -608 -0.78
v -1760 -608 -0.78
v -1744 -624 -0.78
v -1760 -624 -0.78
v -1760 -608 -0.78
v -1744 -608 -0.78
v -1728 -624 -0.78
v -1744 -624 -0.78
v -1744 -608 -0.78
v -1728 -608 -0.78
v -1712 -624 -0.78
v -1728 -624 -0.78
v -1728 -608 -0.78
v -1712 -608 -0.78
v -1696 -624 -0.78
v -1712 -624 -0.78
v -1712 -608 -0.78
v -1696 -608 -0.78
v -1680 -624 -0.78
v -1696 -624 -0.78
v -1696 -608 -0.78
v -1680 -608 -0.78
v -1664 -624 -0.78
v -1680 -624 -0.78
v -1680 -608 -0.78
v -1664 -608 -0.78
v -1648 -624 -0.78
v -1664 -624 -0.78
v -1664 -608 -0.78
v -1648 -608 -0.78
v -1632 -624 -0.78
v -1648 -624 -0.78
v -1648 -608 -0.78
v -1632 -608 -0.78
v -1616 -624 -0.78
v -1632 -624 -0.78
v -1632 -608 -0.78
v -1616 -608 -0.78
v -1600 -624 -0.78
v -1616 -624 -0.78
v -1616 -608 -0.78
v -1600 -608 -0.78
v -1584 -624 -0.78
v -1600 -624 -0.78
v -1600 -608 -0.78
v -1584 -608 -0.78
v -1568 -624 -0.78
v -1584 -624 -0.78
v -1584 -608 -0.78
v -1568 -608 -0.78
v -1552 -624 -0.78
v -1568 -624 -0.78
v -1568 -608 -0.78
v -1552 -608 -0.78
v -1536 -624 -0.78
v -1552 -624 -0.78
v -1552 -608 -0.78
v -1536 -608 -0.78
v -1520 -624 -0.78
v -1536 -624 -0.78
v -1536 -608 -0.78
v -1520 -608 -0.78
v -1936 -608 -0.76
v -1952 -608 -0.76
v -1952 -592 -0.76
v -1936 -592 -0.76
v -1920 -608 -0.76
v -1936 -608 -0.76
v -1936 -592 -0.76
v -1920 -592 -0.76
v -1904 -608 -0.76
v -1920 -608 -0.76
v -1920 -592 -0.76
v -1904 -592 -0.76
v -1888 -608 -0.76
v -1904 -608 -0.76
v -1904 -592 -0.76
v -1888 -592 -0.76
v -1872 -608 -0.76
v -1888 -608 -0.76
v -1888 -592 -0.76
v -1872 -592 -0.76
v -1856 -608 -0.76
v -1872 -608 -0.76
v -1872 -592 -0.76
v -1856 -592 -0.76
v -1840 -608 -0.76
v -1856 -608 -0.76
v -1856 -592 -0.76
v -1840 -592 -0.76
v -1824 -608 -0.76
v -1840 -608 -0.76
v -1840 -592 -0.76
v -1824 -592 -0.76
v -1808 -608 -0.76
v -1824 -608 -0.76
v -1824 -592 -0.76
v -1808 -592 -0.76
v -1792 -608 -0.76
v -1808 -608 -0.76
v -1808 -592 -0.76
v -1792 -592 -0.76
v -1776 -608 -0.76
v -1792 -608 -0.76
v -1792 -592 -0.76
v -1776 -592 -0.76
v -1760 -608 -0.76
v -1776 -608 -0.76
v -1776 -592 -0.76
v -1760 -592 -0.76
v -1744 -608 -0.76
v -1760 -608 -0.76
v -1760 -592 -0.76
v -1744 -592 -0.76
v -1728 -608 -0.76
v -1744 -608 -0.76
v -1744 -592 -0.76
v -1728 -592 -0.76
v -1712 -608 -0.76
v -1728 -608 -0.76
v -1728 -592 -0.76
v -1712 -592 -0.76
v -1696 -608 -0.76
v -1712 -608 -0.76
v -1712 -592 -0.76
v -1696 -592 -0.76
v -1680 -608 -0.76
v -1696 -608 -0.76
v -1696 -592 -0.76
v -1680 -592 -0.76
v -1664 -608 -0.76
v -1680 -608 -0.76
v -1680 -592 -0.76
v -1664 -592 -0.76
v -1648 -608 -0.76
v -1664 -608 -0.76
v -1664 -592 -0.76
v -1648 -592 -0.76
v -1632 -608 -0.76
v -1648 -608 -0.76
v -1648 -592 -0.76
v -1632 -592 -0.76
v -1616 -608 -0.76
v -1632 -608 -0.76
v -1632 -592 -0.76
v -1616 -592 -0.76
v -1600 -608 -0.76
v -1616 -608 -0.76
v -1616 -592 -0.76
v -1600 -592 -0.76
v -1584 -608 -0.76
v -1600 -608 -0.76
v -1600 -592 -0.76
v -1584 -592 -0.76
v -1568 -608 -0.76
v -1584 -608 -0.76
v -1584 -592 -0.76
v -1568 -592 -0.76
v -1552 -608 -0.76
v -1568 -608 -0.76
v -1568 -592 -0.76
v -1552 -592 -0.76
v -1536 -608 -0.76
v -1552 -608 -0.76
v -1552 -592 -0.76
v -1536 -592 -0.76
v -1520 -608 -0.76
v -1536 -608 -0.76
v -1536 -592 -0.76
v -1520 -592 -0.76
v -1936 -576 -0.72
v -1952 -576 -0.72
v -1952 -560 -0.72
v -1936 -560 -0.72
v -1920 -576 -0.72
v -1936 -576 -0.72
v -1936 -560 -0.72
v -1920 -560 -0.72
v -1904 -576 -0.72
v -1920 -576 -0.72
v -1920 -560 -0.72
v -1904 -560 -0.72
v -1888 -576 -0.72
v -1904 -576 -0.72
v -1904 -560 -0.72
v -1888 -560 -0.72
v -1872 -576 -0.72
v -1888 -576 -0.72
v -1888 -560 -0.72
v -1872 -560 -0.72
v -1856 -576 -0.72
v -1872 -576 -0.72
v -1872 -560 -0.72
v -1856 -560 -0.72
v -1840 -576 -0.72
v -1856 -576 -0.72
v -1856 -560 -0.72
v -1840 -560 -0.72
v -1824 -576 -0.72
v -1840 -576 -0.72
v -1840 -560 -0.72
v -1824 -560 -0.72
v -1808 -576 -0.72
v -1824 -576 -0.72
v -1824 -560 -0.72
v -1808 -560 -0.72
v -1792 -576 -0.72
v -1808 -576 -0.72
v -1808 -560 -0.72
v -1792 -560 -0.72
v -1776 -576 -0.72
v -1792 -576 -0.72
v -1792 -560 -0.72
v -1776 -560 -0.72
v -1760 -576 -0.72
v -1776 -576 -0.72
v -1776 -560 -0.72
v -1760 -560 -0.72
v -1744 -576 -0.72
v -1760 -576 -0.72
v -1760 -560 -0.72
v -1744 -560 -0.72
v -1728 -576 -0.72
v -1744 -576 -0.72
v -1744 -560 -0.72
v -1728 -560 -0.72
v -1712 -576 -0.72
v -1728 -576 -0.72
v -1728 -560 -0.72
v -1712 -560 -0.72
v -1696 -576 -0.72
v -1712 -576 -0.72
v -1712 -560 -0.72
v -1696 -560 -0.72
v -1680 -576 -0.72
v -1696 -576 -0.72
v -1696 -560 -0.72
v -1680 -560 -0.72
v -1664 -576 -0.72
v -1680 -576 -0.72
v -1680 -560 -0.72
v -1664 -560 -0.72
v -1648 -576 -0.72
v -1664 -576 -0.72
v -1664 -560 -0.72
v -1648 -560 -0.72
v -1632 -576 -0.72
v -1648 -576 -0.72
v -1648 -560 -0.72
v -1632 -560 -0.72
v -1616 -576 -0.72
v -1632 -576 -0.72
v -1632 -560 -0.72
v -1616 -560 -0.72
v -1600 -576 -0.72
v -1616 -576 -0.72
v -1616 -560 -0.72
v -1600 -560 -0.72
v -1584 -576 -0.72
v -1600 -576 -0.72
v -1600 -560 -0.72
v -1584 -560 -0.72
v -1568 -576 -0.72
v -1584 -576 -0.72
v -1584 -560 -0.72
v -1568 -560 -0.72
v -1552 -576 -0.72
v -1568 -576 -0.72
v -1568 -560 -0.72
v -1552 -560 -0.72
v -1536 -576 -0.72
v -1552 -576 -0.72
v -1552 -560 -0.72
v -1536 -560 -0.72
v -1520 -576 -0.72
v -1536 -576 -0.72
v -1536 -560 -0.72
v -1520 -560 -0.72

# Texture cooridinates (Count = 37)
vt 0.9 0.5909091
vt 0.9333333 0.5909091
vt 0.9333333 0.6363636
vt 0.9 0.6363636
vt 0.8666667 0.5909091
vt 0.8666667 0.6363636
vt 0.8333333 0.5909091
vt 0.8333333 0.6363636
vt 0.8 0.5909091
vt 0.8 0.6363636
vt 0.9 0.5
vt 0.9333333 0.5
vt 0.9333333 0.5454545
vt 0.9 0.5454545
vt 0.8666667 0.5
vt 0.8666667 0.5454545
vt 0.8333333 0.5
vt 0.8333333 0.5454545
vt 0.8 0.5
vt 0.8 0.5454545
vt 0.1 0.5
vt 0.1333333 0.5
vt 0.1333333 0.5454545
vt 0.1 0.5454545
vt 0.1333333 0.5909091
vt 0.1666667 0.5909091
vt 0.1666667 0.6363636
vt 0.1333333 0.6363636
vt 0.1666667 0.6818182
vt 0.1333333 0.6818182
vt 0.1333333 0.9545454
vt 0.1666667 0.9545454
vt 0.1666667 1
vt 0.1333333 1
vt 0.1666667 0.9090909
vt 0.2 0.9090909
vt 0.2 0.9545454

# Normal
vn 0 0 -1

# Mesh description
g Level1_mesh_0006

# Faces
f 1/1/1 2/2/1 3/3/1 4/4/1
f 5/5/1 6/1/1 7/4/1 8/6/1
f 9/7/1 10/5/1 11/6/1 12/8/1
f 13/9/1 14/7/1 15/8/1 16/10/1
f 17/11/1 18/12/1 19/13/1 20/14/1
f 21/15/1 22/11/1 23/14/1 24/16/1
f 25/17/1 26/15/1 27/16/1 28/18/1
f 29/19/1 30/17/1 31/18/1 32/20/1
f 33/14/1 34/13/1 35/2/1 36/1/1
f 37/16/1 38/14/1 39/1/1 40/5/1
f 41/18/1 42/16/1 43/5/1 44/7/1
f 45/20/1 46/18/1 47/7/1 48/9/1
f 49/1/1 50/2/1 51/3/1 52/4/1
f 53/5/1 54/1/1 55/4/1 56/6/1
f 57/7/1 58/5/1 59/6/1 60/8/1
f 61/9/1 62/7/1 63/8/1 64/10/1
f 65/11/1 66/12/1 67/13/1 68/14/1
f 69/15/1 70/11/1 71/14/1 72/16/1
f 73/17/1 74/15/1 75/16/1 76/18/1
f 77/19/1 78/17/1 79/18/1 80/20/1
f 81/14/1 82/13/1 83/2/1 84/1/1
f 85/16/1 86/14/1 87/1/1 88/5/1
f 89/18/1 90/16/1 91/5/1 92/7/1
f 93/20/1 94/18/1 95/7/1 96/9/1
f 97/1/1 98/2/1 99/3/1 100/4/1
f 101/5/1 102/1/1 103/4/1 104/6/1
f 105/7/1 106/5/1 107/6/1 108/8/1
f 109/9/1 110/7/1 111/8/1 112/10/1
f 113/11/1 114/12/1 115/13/1 116/14/1
f 117/15/1 118/11/1 119/14/1 120/16/1
f 121/17/1 122/15/1 123/16/1 124/18/1
f 125/19/1 126/17/1 127/18/1 128/20/1
f 129/14/1 130/13/1 131/2/1 132/1/1
f 133/16/1 134/14/1 135/1/1 136/5/1
f 137/18/1 138/16/1 139/5/1 140/7/1
f 141/20/1 142/18/1 143/7/1 144/9/1
f 145/21/1 146/22/1 147/23/1 148/24/1
f 149/21/1 150/22/1 151/23/1 152/24/1
f 153/1/1 154/2/1 155/3/1 156/4/1
f 157/5/1 158/1/1 159/4/1 160/6/1
f 161/7/1 162/5/1 163/6/1 164/8/1
f 165/9/1 166/7/1 167/8/1 168/10/1
f 169/11/1 170/12/1 171/13/1 172/14/1
f 173/15/1 174/11/1 175/14/1 176/16/1
f 177/17/1 178/15/1 179/16/1 180/18/1
f 181/19/1 182/17/1 183/18/1 184/20/1
f 185/14/1 186/13/1 187/2/1 188/1/1
f 189/16/1 190/14/1 191/1/1 192/5/1
f 193/18/1 194/16/1 195/5/1 196/7/1
f 197/20/1 198/18/1 199/7/1 200/9/1
f 201/1/1 202/2/1 203/3/1 204/4/1
f 205/5/1 206/1/1 207/4/1 208/6/1
f 209/7/1 210/5/1 211/6/1 212/8/1
f 213/9/1 214/7/1 215/8/1 216/10/1
f 217/11/1 218/12/1 219/13/1 220/14/1
f 221/15/1 222/11/1 223/14/1 224/16/1
f 225/17/1 226/15/1 227/16/1 228/18/1
f 229/19/1 230/17/1 231/18/1 232/20/1
f 233/14/1 234/13/1 235/2/1 236/1/1
f 237/16/1 238/14/1 239/1/1 240/5/1
f 241/18/1 242/16/1 243/5/1 244/7/1
f 245/20/1 246/18/1 247/7/1 248/9/1
f 249/21/1 250/22/1 251/23/1 252/24/1
f 253/21/1 254/22/1 255/23/1 256/24/1
f 257/1/1 258/2/1 259/3/1 260/4/1
f 261/5/1 262/1/1 263/4/1 264/6/1
f 265/7/1 266/5/1 267/6/1 268/8/1
f 269/9/1 270/7/1 271/8/1 272/10/1
f 273/21/1 274/22/1 275/23/1 276/24/1
f 277/21/1 278/22/1 279/23/1 280/24/1
f 281/21/1 282/22/1 283/23/1 284/24/1
f 285/21/1 286/22/1 287/23/1 288/24/1
f 289/21/1 290/22/1 291/23/1 292/24/1
f 293/21/1 294/22/1 295/23/1 296/24/1
f 297/21/1 298/22/1 299/23/1 300/24/1
f 301/21/1 302/22/1 303/23/1 304/24/1
f 305/21/1 306/22/1 307/23/1 308/24/1
f 309/21/1 310/22/1 311/23/1 312/24/1
f 313/21/1 314/22/1 315/23/1 316/24/1
f 317/21/1 318/22/1 319/23/1 320/24/1
f 321/21/1 322/22/1 323/23/1 324/24/1
f 325/21/1 326/22/1 327/23/1 328/24/1
f 329/21/1 330/22/1 331/23/1 332/24/1
f 333/25/1 334/26/1 335/27/1 336/28/1
f 337/25/1 338/26/1 339/27/1 340/28/1
f 341/28/1 342/27/1 343/29/1 344/30/1
f 345/21/1 346/22/1 347/23/1 348/24/1
f 349/21/1 350/22/1 351/23/1 352/24/1
f 353/21/1 354/22/1 355/23/1 356/24/1
f 357/21/1 358/22/1 359/23/1 360/24/1
f 361/21/1 362/22/1 363/23/1 364/24/1
f 365/21/1 366/22/1 367/23/1 368/24/1
f 369/21/1 370/22/1 371/23/1 372/24/1
f 373/21/1 374/22/1 375/23/1 376/24/1
f 377/21/1 378/22/1 379/23/1 380/24/1
f 381/21/1 382/22/1 383/23/1 384/24/1
f 385/21/1 386/22/1 387/23/1 388/24/1
f 389/21/1 390/22/1 391/23/1 392/24/1
f 393/21/1 394/22/1 395/23/1 396/24/1
f 397/21/1 398/22/1 399/23/1 400/24/1
f 401/21/1 402/22/1 403/23/1 404/24/1
f 405/21/1 406/22/1 407/23/1 408/24/1
f 409/21/1 410/22/1 411/23/1 412/24/1
f 413/21/1 414/22/1 415/23/1 416/24/1
f 417/21/1 418/22/1 419/23/1 420/24/1
f 421/21/1 422/22/1 423/23/1 424/24/1
f 425/21/1 426/22/1 427/23/1 428/24/1
f 429/21/1 430/22/1 431/23/1 432/24/1
f 433/21/1 434/22/1 435/23/1 436/24/1
f 437/31/1 438/32/1 439/33/1 440/34/1
f 441/31/1 442/32/1 443/33/1 444/34/1
f 445/31/1 446/32/1 447/33/1 448/34/1
f 449/31/1 450/32/1 451/33/1 452/34/1
f 453/31/1 454/32/1 455/33/1 456/34/1
f 457/31/1 458/32/1 459/33/1 460/34/1
f 461/31/1 462/32/1 463/33/1 464/34/1
f 465/21/1 466/22/1 467/23/1 468/24/1
f 469/21/1 470/22/1 471/23/1 472/24/1
f 473/21/1 474/22/1 475/23/1 476/24/1
f 477/21/1 478/22/1 479/23/1 480/24/1
f 481/21/1 482/22/1 483/23/1 484/24/1
f 485/21/1 486/22/1 487/23/1 488/24/1
f 489/21/1 490/22/1 491/23/1 492/24/1
f 493/21/1 494/22/1 495/23/1 496/24/1
f 497/21/1 498/22/1 499/23/1 500/24/1
f 501/21/1 502/22/1 503/23/1 504/24/1
f 505/21/1 506/22/1 507/23/1 508/24/1
f 509/21/1 510/22/1 511/23/1 512/24/1
f 513/21/1 514/22/1 515/23/1 516/24/1
f 517/21/1 518/22/1 519/23/1 520/24/1
f 521/21/1 522/22/1 523/23/1 524/24/1
f 525/21/1 526/22/1 527/23/1 528/24/1
f 529/21/1 530/22/1 531/23/1 532/24/1
f 533/21/1 534/22/1 535/23/1 536/24/1
f 537/21/1 538/22/1 539/23/1 540/24/1
f 541/35/1 542/36/1 543/37/1 544/32/1
f 545/35/1 546/36/1 547/37/1 548/32/1
f 549/35/1 550/36/1 551/37/1 552/32/1
f 553/35/1 554/36/1 555/37/1 556/32/1
f 557/35/1 558/36/1 559/37/1 560/32/1
f 561/35/1 562/36/1 563/37/1 564/32/1
f 565/35/1 566/36/1 567/37/1 568/32/1
f 569/35/1 570/36/1 571/37/1 572/32/1
f 573/35/1 574/36/1 575/37/1 576/32/1
f 577/35/1 578/36/1 579/37/1 580/32/1
f 581/35/1 582/36/1 583/37/1 584/32/1
f 585/35/1 586/36/1 587/37/1 588/32/1
f 589/35/1 590/36/1 591/37/1 592/32/1
f 593/35/1 594/36/1 595/37/1 596/32/1
f 597/35/1 598/36/1 599/37/1 600/32/1
f 601/35/1 602/36/1 603/37/1 604/32/1
f 605/35/1 606/36/1 607/37/1 608/32/1
f 609/35/1 610/36/1 611/37/1 612/32/1
f 613/35/1 614/36/1 615/37/1 616/32/1
f 617/35/1 618/36/1 619/37/1 620/32/1
f 621/35/1 622/36/1 623/37/1 624/32/1
f 625/35/1 626/36/1 627/37/1 628/32/1
f 629/35/1 630/36/1 631/37/1 632/32/1
f 633/35/1 634/36/1 635/37/1 636/32/1
f 637/35/1 638/36/1 639/37/1 640/32/1
f 641/35/1 642/36/1 643/37/1 644/32/1
f 645/35/1 646/36/1 647/37/1 648/32/1

