# Tiled2Unity generated file. Do not modify by hand.
# Wavefront file for 'test_mesh_0006.obj'

# Vertices (Count = 16)
v -1120 -432 -0.8148148
v -1232 -432 -0.8148148
v -1232 -336 -0.8148148
v -1120 -336 -0.8148148
v -1024 -432 -0.8148148
v -1136 -432 -0.8148148
v -1136 -336 -0.8148148
v -1024 -336 -0.8148148
v -576 -432 -0.8148148
v -688 -432 -0.8148148
v -688 -336 -0.8148148
v -576 -336 -0.8148148
v -496 -432 -0.8148148
v -608 -432 -0.8148148
v -608 -336 -0.8148148
v -496 -336 -0.8148148

# Texture cooridinates (Count = 4)
vt 0 0
vt 1 0
vt 1 1
vt 0 1

# Normal
vn 0 0 -1

# Mesh description
g test_mesh_0006

# Faces
f 1/1/1 2/2/1 3/3/1 4/4/1
f 5/1/1 6/2/1 7/3/1 8/4/1
f 9/1/1 10/2/1 11/3/1 12/4/1
f 13/1/1 14/2/1 15/3/1 16/4/1

