# Tiled2Unity generated file. Do not modify by hand.
# Wavefront file for 'test_mesh_0005.obj'

# Vertices (Count = 32)
v -2864 -336 -0.1111111
v -2976 -336 -0.1111111
v -2976 -32 -0.1111111
v -2864 -32 -0.1111111
v -2848 -336 -0.1111111
v -2960 -336 -0.1111111
v -2960 -32 -0.1111111
v -2848 -32 -0.1111111
v -2864 -304 -0.03703704
v -2976 -304 -0.03703704
v -2976 0 -0.03703704
v -2864 0 -0.03703704
v -2800 -304 -0.03703704
v -2912 -304 -0.03703704
v -2912 0 -0.03703704
v -2800 0 -0.03703704
v -2752 -304 -0.03703704
v -2864 -304 -0.03703704
v -2864 0 -0.03703704
v -2752 0 -0.03703704
v -2640 -304 -0.03703704
v -2752 -304 -0.03703704
v -2752 0 -0.03703704
v -2640 0 -0.03703704
v -2560 -304 -0.03703704
v -2672 -304 -0.03703704
v -2672 0 -0.03703704
v -2560 0 -0.03703704
v -2512 -304 -0.03703704
v -2624 -304 -0.03703704
v -2624 0 -0.03703704
v -2512 0 -0.03703704

# Texture cooridinates (Count = 4)
vt 0 0
vt 1 0
vt 1 1
vt 0 1

# Normal
vn 0 0 -1

# Mesh description
g test_mesh_0005

# Faces
f 1/1/1 2/2/1 3/3/1 4/4/1
f 5/1/1 6/2/1 7/3/1 8/4/1
f 9/1/1 10/2/1 11/3/1 12/4/1
f 13/1/1 14/2/1 15/3/1 16/4/1
f 17/1/1 18/2/1 19/3/1 20/4/1
f 21/1/1 22/2/1 23/3/1 24/4/1
f 25/1/1 26/2/1 27/3/1 28/4/1
f 29/1/1 30/2/1 31/3/1 32/4/1

